PathFileType	4	(X/Y/Z)	/Users/niels/Desktop/University/Third Semester/Perception and Action/Exam/Gymnastics Motion Tracking/Code for Gym Tracking/Analyzed Data/Webcam_Backflip/id4_3_pure_Sports2D/id4_3_pure_Sports2D_px_person00.trc
DataRate	CameraRate	NumFrames	NumMarkers	Units	OrigDataRate	OrigDataStartFrame	OrigNumFrames
29.81132075471698	29.81132075471698	7	22	m	29.81132075471698	39	159
Frame#	Time	Hip			RHip			RKnee			RAnkle			RBigToe			RSmallToe			RHeel			LHip			LKnee			LAnkle			LBigToe			LSmallToe			LHeel			Neck			Head			Nose			RShoulder			RElbow			RWrist			LShoulder			LElbow			LWrist		
		X1	Y1	Z1	X2	Y2	Z2	X3	Y3	Z3	X4	Y4	Z4	X5	Y5	Z5	X6	Y6	Z6	X7	Y7	Z7	X8	Y8	Z8	X9	Y9	Z9	X10	Y10	Z10	X11	Y11	Z11	X12	Y12	Z12	X13	Y13	Z13	X14	Y14	Z14	X15	Y15	Z15	X16	Y16	Z16	X17	Y17	Z17	X18	Y18	Z18	X19	Y19	Z19	X20	Y20	Z20	X21	Y21	Z21	X22	Y22	Z22
39	1.3082278481012657	0.9589530785012685	-0.42315477792969064	0.0	0.961633107529158	-0.423426888541015	0.0	1.04051626568266	-0.3727131742817033	0.0	1.0494828622411374	-0.46679878538568415	0.0	1.0757609160191708	-0.4917320933858596	0.0	1.0741105150594867	-0.49287738530367514	0.0	1.042478424550684	-0.4816629800502708	0.0	0.9570874787007057	-0.4215022727870655	0.0	1.0332437379017783	-0.3745956826652014	0.0	1.0461010611402028	-0.4638984486190643	0.0	1.0735296813004842	-0.49104187313109104	0.0	1.0711687686465954	-0.4912088968219933	0.0	1.0397647036075182	-0.48079384769636935	0.0	0.8364912316165334	-0.3517032665608632	0.0	0.7725789649707592	-0.3177702433793063	0.0	0.8151187236245829	-0.31306645789595433	0.0	0.8460518513629447	-0.3578476669568928	0.0	0.9112026570519043	-0.36109774927216476	0.0	0.9417329418679645	-0.3033147042014447	0.0	0.8472771326973303	-0.3546731717352765	0.0	0.9119052425438811	-0.3493134874997739	0.0	0.9453017428552211	-0.30047201284180003	0.0
40	1.3417721518987342	0.9650507015834112	-0.4036950772576404	0.0	0.9683845374717431	-0.4036412628378752	0.0	1.0211689909005999	-0.3231405873834393	0.0	1.0565434375246352	-0.4033711726555675	0.0	1.0886141156599598	-0.4122683982788253	0.0	1.0889730220270835	-0.4164918307367998	0.0	1.0549116764889503	-0.4184856656978247	0.0	0.9633856473715775	-0.401839306472873	0.0	1.0155358129558791	-0.3267578009369198	0.0	1.0538722482403886	-0.4003113183506057	0.0	1.0845785972691475	-0.41029611769395585	0.0	1.084192539709599	-0.4123520166876957	0.0	1.0544992390554573	-0.41749182836478227	0.0	0.8340296398882012	-0.35604346807608456	0.0	0.7685220903154543	-0.33378987695777645	0.0	0.8085154916631526	-0.3230298197400218	0.0	0.8454931344592711	-0.3580762946123509	0.0	0.9145285358243617	-0.35068487352721467	0.0	0.9464684728819222	-0.29189906288021206	0.0	0.8456398521000384	-0.3580902923939859	0.0	0.9117053296482981	-0.3426167704975499	0.0	0.9466376769417194	-0.289644549596346	0.0
41	1.3753164556962025	0.972577578294336	-0.3836514946320425	0.0	0.9763144187155472	-0.3830933203369105	0.0	0.9950303231051634	-0.28627814056482503	0.0	1.054706122210163	-0.34470110816965494	0.0	1.0880180244377093	-0.3372516740692323	0.0	1.091007018798021	-0.3438540415383066	0.0	1.0588392610179183	-0.3580803643021492	0.0	0.9705791850680838	-0.3821195552492365	0.0	0.9920368897696418	-0.2919650302659252	0.0	1.0532632398964168	-0.3419310889570921	0.0	1.0839806262261245	-0.3349424459141007	0.0	1.0846687188829836	-0.33859082059125417	0.0	1.061008424347446	-0.3574424998138653	0.0	0.8381232397036621	-0.3664597718053144	0.0	0.773313143687162	-0.3588015983507904	0.0	0.8084045081063749	-0.34147120571306633	0.0	0.8511257223362148	-0.3630204734080145	0.0	0.9187479111332022	-0.33984742249638383	0.0	0.9464522033053407	-0.27956938441015877	0.0	0.85002872175722	-0.36730141744970657	0.0	0.9127874828901907	-0.33765954841933643	0.0	0.9449218325918491	-0.27951886030405754	0.0
42	1.4088607594936708	0.9796899054694514	-0.3622005954242786	0.0	0.9834230681525543	-0.3610446622310086	0.0	0.965670194274508	-0.2635086492631877	0.0	1.0428131142621684	-0.2937169962246993	0.0	1.0717667086522304	-0.2730515764757715	0.0	1.0778774898391423	-0.2807644643265812	0.0	1.051742071538791	-0.30323693415445585	0.0	0.9771796532274828	-0.3613119449138066	0.0	0.9665370118608662	-0.27150294525488233	0.0	1.0431980090406026	-0.29166789194431275	0.0	1.0701314886325464	-0.2714181293432037	0.0	1.0707384488830418	-0.27592748519850235	0.0	1.0564278106485092	-0.3033092061714649	0.0	0.8494006284690612	-0.38082481406190183	0.0	0.7885806933104823	-0.38998810030742115	0.0	0.815973349767253	-0.3665876474727168	0.0	0.862742502600528	-0.37128226461116925	0.0	0.9224569867200004	-0.33038049659000807	0.0	0.940231355247852	-0.26913344644948806	0.0	0.8611320152167694	-0.3800931744264578	0.0	0.9149698572474865	-0.3347619917103891	0.0	0.9395557282573387	-0.27268639511208803	0.0
43	1.4424050632911392	0.9843159724565734	-0.3397241710521669	0.0	0.9875893380185854	-0.338098517089553	0.0	0.9360961079502067	-0.25427397763657933	0.0	1.0208374149741268	-0.25331167785923203	0.0	1.040498105038048	-0.22501032475382732	0.0	1.0498973811114813	-0.23254042719843707	0.0	1.0326543901371488	-0.2574699716980825	0.0	0.9814898434300201	-0.33934356833543394	0.0	0.9417714409232403	-0.2642072385279039	0.0	1.0235529044603584	-0.25202547582193435	0.0	1.0431856112093945	-0.2244124531740508	0.0	1.0429295652199249	-0.22892382020002144	0.0	1.039386669169072	-0.2580638446847206	0.0	0.8677617951315107	-0.39649160621578144	0.0	0.8150491421351698	-0.4230097132389497	0.0	0.8321471856285593	-0.39528662604475184	0.0	0.879620305011533	-0.38128825263053345	0.0	0.9249531318843374	-0.3240159820533277	0.0	0.928292107574179	-0.26371503422553705	0.0	0.8787589311685275	-0.3938054249341775	0.0	0.918201794922471	-0.3339354470261888	0.0	0.9309857856413003	-0.2717034707369945	0.0
44	1.4759493670886075	0.984997592587893	-0.3177354861478272	0.0	0.987395509802551	-0.31599494450787236	0.0	0.9087437547570332	-0.25697309331898743	0.0	0.9899187104353662	-0.22581810728101984	0.0	0.9971647702514845	-0.1959819759966889	0.0	1.0094987618601472	-0.2024246216238086	0.0	1.0024465095027775	-0.22394065360465507	0.0	0.9822207280743969	-0.3174491702577997	0.0	0.9191502647073184	-0.2674545414784146	0.0	0.9949795096018916	-0.22471942400046555	0.0	1.0047227157131502	-0.19595581188689992	0.0	1.003566062265708	-0.1998271428867518	0.0	1.0104570076482857	-0.2242393853865727	0.0	0.892177271538853	-0.4106559217732439	0.0	0.8518709159014999	-0.4529387702310571	0.0	0.857096007974294	-0.4234192298504275	0.0	0.9006607149336108	-0.3912518626525969	0.0	0.9263171164458782	-0.32185100689243956	0.0	0.9127377853014166	-0.26575675240106433	0.0	0.9017583883335791	-0.4056443092521604	0.0	0.922414608647234	-0.3349913618318319	0.0	0.9204892837629246	-0.27795133289240603	0.0
45	1.5094936708860758	0.9812694588703107	-0.2983927122441556	0.0	0.9824840337727578	-0.2970429658366702	0.0	0.8859000912728445	-0.26979320434900683	0.0	0.9522664775055931	-0.21293833820653088	0.0	0.9462992574265053	-0.18663692732602494	0.0	0.960457705966167	-0.1914709968943416	0.0	0.9635181066080871	-0.20495498233222845	0.0	0.978876726867504	-0.2979054277767232	0.0	0.8994542831988218	-0.2786084123170832	0.0	0.9590034222043593	-0.21112276906085897	0.0	0.9576973482654235	-0.18637361244344156	0.0	0.9562844121901495	-0.1891865017846069	0.0	0.9719102614361518	-0.2040183250601325	0.0	0.9207762168364859	-0.42072948525008175	0.0	0.8965290318530866	-0.47533174895398894	0.0	0.8899426083983217	-0.4465734895787639	0.0	0.9245317524117391	-0.399243228574184	0.0	0.9272429393537124	-0.32409832854493825	0.0	0.8967644960262052	-0.27648320508694263	0.0	0.9282296943594498	-0.41310448735084465	0.0	0.9275034314697993	-0.3376945120726161	0.0	0.909819776064837	-0.29126780407125963	0.0
